<svg xmlns="http://www.w3.org/2000/svg" width="1928" height="420" viewBox="0 0 1928 420">
<rect width="100%" height="100%" fill="#0f172a"/>
<style>
text { font-family: ui-monospace, SFMono-Regular, Menlo, monospace; }
.title { fill: #e2e8f0; font-size: 18px; font-weight: 700; }
.subtitle { fill: #94a3b8; font-size: 12px; }
.panel-title { fill: #e2e8f0; font-size: 14px; font-weight: 700; }
.panel-box { fill: rgba(255,255,255,0.04); stroke: rgba(255,255,255,0.18); stroke-width: 1; }
</style>
<text x="24" y="32" class="title">Leashed APF Virtual Target Scenarios</text>
<text x="24" y="52" class="subtitle">cyan = virtual target path, green = goal, white = robot origin, red = tracked obstacle, orange dashed = inflated obstacle</text>
<rect x="24.0" y="72.0" width="360.0" height="320.0" rx="10" class="panel-box"/>
<text x="36.0" y="94.0" class="panel-title">No Obstacles</text>
<rect x="36.0" y="108.0" width="336.0" height="272.0" fill="#111827" stroke="rgba(255,255,255,0.08)" stroke-width="1"/>
<line x1="64.0" y1="244.0" x2="120.0" y2="341.0" stroke="rgba(148,163,184,0.45)" stroke-width="1"/>
<line x1="64.0" y1="244.0" x2="120.0" y2="147.0" stroke="rgba(148,163,184,0.45)" stroke-width="1"/>
<circle cx="64.0" cy="244.0" r="112.0" fill="none" stroke="rgba(148,163,184,0.18)" stroke-width="1"/>
<line x1="339.0" y1="239.0" x2="349.0" y2="249.0" stroke="#4ade80" stroke-width="2"/>
<line x1="339.0" y1="249.0" x2="349.0" y2="239.0" stroke="#4ade80" stroke-width="2"/>
<circle cx="64.0" cy="244.0" r="4" fill="#e5e7eb"/>
<path d="M 69.6 244.0 L 75.2 244.0 L 80.8 244.0 L 86.4 244.0 L 92.0 244.0 L 97.6 244.0 L 103.2 244.0 L 108.8 244.0 L 114.4 244.0 L 120.0 244.0 L 125.6 244.0 L 131.2 244.0 L 136.8 244.0 L 142.4 244.0 L 148.0 244.0 L 153.6 244.0" fill="none" stroke="#22d3ee" stroke-width="2.5"/>
<circle cx="153.6" cy="244.0" r="4" fill="#22d3ee"/>
<text x="36.0" y="384.0" class="subtitle">leash=400 mm, infl=200 mm</text>
<rect x="404.0" y="72.0" width="360.0" height="320.0" rx="10" class="panel-box"/>
<text x="416.0" y="94.0" class="panel-title">Leash Clip +60°</text>
<rect x="416.0" y="108.0" width="336.0" height="272.0" fill="#111827" stroke="rgba(255,255,255,0.08)" stroke-width="1"/>
<line x1="535.4" y1="360.6" x2="574.3" y2="427.9" stroke="rgba(148,163,184,0.45)" stroke-width="1"/>
<line x1="535.4" y1="360.6" x2="574.3" y2="293.3" stroke="rgba(148,163,184,0.45)" stroke-width="1"/>
<circle cx="535.4" cy="360.6" r="77.7" fill="none" stroke="rgba(148,163,184,0.18)" stroke-width="1"/>
<line x1="627.6" y1="122.4" x2="637.6" y2="132.4" stroke="#4ade80" stroke-width="2"/>
<line x1="627.6" y1="132.4" x2="637.6" y2="122.4" stroke="#4ade80" stroke-width="2"/>
<circle cx="535.4" cy="360.6" r="4" fill="#e5e7eb"/>
<path d="M 537.6 356.9 L 539.7 353.2 L 541.8 349.5 L 543.9 345.8 L 546.1 342.2 L 548.2 338.5 L 550.3 334.8 L 552.4 331.1 L 554.5 327.5 L 556.7 323.8 L 558.8 320.1 L 560.9 316.5 L 563.0 312.8 L 565.1 309.2 L 567.2 305.5 L 569.3 301.8 L 571.4 298.2 L 573.5 294.5" fill="none" stroke="#22d3ee" stroke-width="2.5"/>
<circle cx="573.5" cy="294.5" r="4" fill="#22d3ee"/>
<text x="416.0" y="384.0" class="subtitle">leash=400 mm, infl=200 mm</text>
<rect x="784.0" y="72.0" width="360.0" height="320.0" rx="10" class="panel-box"/>
<text x="796.0" y="94.0" class="panel-title">Leash Clip -60°</text>
<rect x="796.0" y="108.0" width="336.0" height="272.0" fill="#111827" stroke="rgba(255,255,255,0.08)" stroke-width="1"/>
<line x1="915.4" y1="127.4" x2="954.3" y2="194.7" stroke="rgba(148,163,184,0.45)" stroke-width="1"/>
<line x1="915.4" y1="127.4" x2="954.3" y2="60.1" stroke="rgba(148,163,184,0.45)" stroke-width="1"/>
<circle cx="915.4" cy="127.4" r="77.7" fill="none" stroke="rgba(148,163,184,0.18)" stroke-width="1"/>
<line x1="1007.6" y1="355.6" x2="1017.6" y2="365.6" stroke="#4ade80" stroke-width="2"/>
<line x1="1007.6" y1="365.6" x2="1017.6" y2="355.6" stroke="#4ade80" stroke-width="2"/>
<circle cx="915.4" cy="127.4" r="4" fill="#e5e7eb"/>
<path d="M 917.6 131.1 L 919.7 134.8 L 921.8 138.5 L 923.9 142.2 L 926.1 145.8 L 928.2 149.5 L 930.3 153.2 L 932.4 156.9 L 934.5 160.5 L 936.7 164.2 L 938.8 167.9 L 940.9 171.5 L 943.0 175.2 L 945.1 178.8 L 947.2 182.5 L 949.3 186.2 L 951.4 189.8 L 953.5 193.5" fill="none" stroke="#22d3ee" stroke-width="2.5"/>
<circle cx="953.5" cy="193.5" r="4" fill="#22d3ee"/>
<text x="796.0" y="384.0" class="subtitle">leash=400 mm, infl=200 mm</text>
<rect x="1164.0" y="72.0" width="360.0" height="320.0" rx="10" class="panel-box"/>
<text x="1176.0" y="94.0" class="panel-title">Centered Obstacle</text>
<rect x="1176.0" y="108.0" width="336.0" height="272.0" fill="#111827" stroke="rgba(255,255,255,0.08)" stroke-width="1"/>
<line x1="1195.8" y1="236.9" x2="1235.3" y2="305.4" stroke="rgba(148,163,184,0.45)" stroke-width="1"/>
<line x1="1195.8" y1="236.9" x2="1235.3" y2="168.5" stroke="rgba(148,163,184,0.45)" stroke-width="1"/>
<circle cx="1195.8" cy="236.9" r="79.1" fill="none" stroke="rgba(148,163,184,0.18)" stroke-width="1"/>
<circle cx="1353.9" cy="236.9" r="54.4" fill="none" stroke="#fb923c" stroke-dasharray="6 4" stroke-width="1.5"/>
<circle cx="1353.9" cy="236.9" r="14.8" fill="rgba(248,113,113,0.20)" stroke="#f87171" stroke-width="1.5"/>
<line x1="1487.2" y1="231.9" x2="1497.2" y2="241.9" stroke="#4ade80" stroke-width="2"/>
<line x1="1487.2" y1="241.9" x2="1497.2" y2="231.9" stroke="#4ade80" stroke-width="2"/>
<circle cx="1195.8" cy="236.9" r="4" fill="#e5e7eb"/>
<path d="M 1199.7 236.9 L 1203.7 236.9 L 1207.6 237.5 L 1211.3 238.8 L 1214.7 240.8 L 1217.0 244.0 L 1217.3 248.0 L 1216.3 251.8 L 1215.1 255.6 L 1214.2 259.4 L 1213.8 263.3 L 1213.9 267.3 L 1215.3 270.8 L 1217.2 274.1 L 1219.1 277.3 L 1221.0 280.6 L 1222.8 283.8 L 1224.6 287.0 L 1226.4 290.1 L 1228.2 293.2 L 1229.9 296.1 L 1231.6 299.0 L 1233.2 301.7 L 1234.8 304.5 L 1235.3 305.4 L 1235.3 305.4 L 1235.3 305.4 L 1235.3 305.4 L 1235.3 305.4 L 1235.3 305.4 L 1235.3 305.4 L 1235.3 305.4" fill="none" stroke="#22d3ee" stroke-width="2.5"/>
<circle cx="1235.3" cy="305.4" r="4" fill="#22d3ee"/>
<text x="1176.0" y="384.0" class="subtitle">leash=400 mm, infl=200 mm</text>
<rect x="1544.0" y="72.0" width="360.0" height="320.0" rx="10" class="panel-box"/>
<text x="1556.0" y="94.0" class="panel-title">Offset Front Obstacle</text>
<rect x="1556.0" y="108.0" width="336.0" height="272.0" fill="#111827" stroke="rgba(255,255,255,0.08)" stroke-width="1"/>
<line x1="1575.8" y1="258.1" x2="1615.3" y2="326.6" stroke="rgba(148,163,184,0.45)" stroke-width="1"/>
<line x1="1575.8" y1="258.1" x2="1615.3" y2="189.6" stroke="rgba(148,163,184,0.45)" stroke-width="1"/>
<circle cx="1575.8" cy="258.1" r="79.1" fill="none" stroke="rgba(148,163,184,0.18)" stroke-width="1"/>
<circle cx="1733.9" cy="222.5" r="54.4" fill="none" stroke="#fb923c" stroke-dasharray="6 4" stroke-width="1.5"/>
<circle cx="1733.9" cy="222.5" r="14.8" fill="rgba(248,113,113,0.20)" stroke="#f87171" stroke-width="1.5"/>
<line x1="1867.2" y1="253.1" x2="1877.2" y2="263.1" stroke="#4ade80" stroke-width="2"/>
<line x1="1867.2" y1="263.1" x2="1877.2" y2="253.1" stroke="#4ade80" stroke-width="2"/>
<circle cx="1575.8" cy="258.1" r="4" fill="#e5e7eb"/>
<path d="M 1579.6 258.9 L 1583.5 259.8 L 1587.3 260.8 L 1591.0 262.2 L 1594.6 263.9 L 1597.8 266.2 L 1600.5 269.0 L 1602.6 272.4 L 1604.0 276.1 L 1605.1 279.9 L 1606.0 283.7 L 1607.0 287.6 L 1608.1 291.4 L 1609.5 295.1 L 1611.1 298.7 L 1612.9 302.2 L 1614.8 305.7 L 1616.9 309.0 L 1619.2 312.2 L 1621.5 315.4 L 1624.0 318.5 L 1625.2 319.8 L 1625.3 319.7 L 1625.4 319.6 L 1625.5 319.5 L 1625.7 319.4 L 1625.8 319.3 L 1625.8 319.3 L 1625.9 319.2 L 1625.9 319.2 L 1625.9 319.2 L 1626.0 319.2" fill="none" stroke="#22d3ee" stroke-width="2.5"/>
<circle cx="1626.0" cy="319.2" r="4" fill="#22d3ee"/>
<text x="1556.0" y="384.0" class="subtitle">leash=400 mm, infl=200 mm</text>
</svg>